<?xml version="1.0" standalone="no"?><!DOCTYPE svg PUBLIC "-//W3C//DTD SVG 1.1//EN" "http://www.w3.org/Graphics/SVG/1.1/DTD/svg11.dtd"><svg t="1681284982653" class="icon" viewBox="0 0 1024 1024" version="1.1" xmlns="http://www.w3.org/2000/svg" p-id="7431" xmlns:xlink="http://www.w3.org/1999/xlink" width="64" height="64"><path d="M810.666667 277.333333h-54.613334l-13.653333-42.666666a128 128 0 0 0-121.173333-85.333334H402.773333A128 128 0 0 0 281.6 236.8l-13.653333 42.666667H213.333333a128 128 0 0 0-128 128v341.333333a128 128 0 0 0 128 128h597.333334a128 128 0 0 0 128-128v-341.333333a128 128 0 0 0-128-130.133334z m42.666666 469.333334a42.666667 42.666667 0 0 1-42.666666 42.666666H213.333333a42.666667 42.666667 0 0 1-42.666666-42.666666v-341.333334a42.666667 42.666667 0 0 1 42.666666-42.666666h85.333334a42.666667 42.666667 0 0 0 42.666666-29.013334l23.04-69.973333a42.666667 42.666667 0 0 1 40.533334-29.013333h218.453333a42.666667 42.666667 0 0 1 40.533333 29.013333l23.04 69.973333a42.666667 42.666667 0 0 0 38.4 29.013334h85.333334a42.666667 42.666667 0 0 1 42.666666 42.666666z m-341.333333-384a170.666667 170.666667 0 1 0 170.666667 170.666666 170.666667 170.666667 0 0 0-170.666667-170.666666z m0 256a85.333333 85.333333 0 1 1 85.333333-85.333334 85.333333 85.333333 0 0 1-85.333333 85.333334z" p-id="7432" fill="#47dbe7"></path></svg>