<?xml version="1.0" standalone="no"?><!DOCTYPE svg PUBLIC "-//W3C//DTD SVG 1.1//EN" "http://www.w3.org/Graphics/SVG/1.1/DTD/svg11.dtd"><svg t="1675653362722" class="icon" viewBox="0 0 1024 1024" version="1.1" xmlns="http://www.w3.org/2000/svg" p-id="2210" width="64" height="64" xmlns:xlink="http://www.w3.org/1999/xlink"><path d="M413.583 452.419L363.1 503.368l27.576 27.576a35.548 35.548 0 0 0 50.484 0 35.548 35.548 0 0 0 0-50.483l-27.577-28.042z m-91.146 91.15l-50.483 50.484 27.576 27.576a35.548 35.548 0 0 0 50.483 0 35.548 35.548 0 0 0 0-50.483l-27.576-27.576z m-91.146 91.147L180.808 685.2l27.576 27.577a35.548 35.548 0 0 0 50.483 0 35.548 35.548 0 0 0 0-50.484l-27.576-27.576zM687.022 178.98l-50.483 50.483 27.576 27.576a35.548 35.548 0 0 0 50.483 0 35.548 35.548 0 0 0 0-50.483l-27.576-27.576zM504.73 361.272l-50.484 50.95 27.577 27.576a35.548 35.548 0 0 0 50.483 0 35.548 35.548 0 0 0 0-50.483l-27.576-28.043z" fill="#00bffe" p-id="2211"></path><path d="M959.995 279.946L747.786 67.738a35.548 35.548 0 0 0-50.483 0L64.425 700.62a35.548 35.548 0 0 0 0 50.483l211.743 211.743a35.548 35.548 0 0 0 50.483 0l633.344-632.423c13.553-14.023 13.553-36.46 0-50.478zM301.87 887.122l-161.26-161.26 35.523-35.522 146.77-146.77 40.663-40.663 50.483-50.483 40.663-40.663 50.484-50.484 40.663-40.663 50.483-50.483 40.663-40.663 50.483-50.483 35.523-35.523 160.793 161.726L301.87 887.122z" fill="#00bffe" p-id="2212"></path><path d="M595.876 270.126l-50.483 50.483 27.576 27.577a35.548 35.548 0 0 0 50.483 0 35.548 35.548 0 0 0 0-50.484l-27.576-27.576z" fill="#00bffe" p-id="2213"></path></svg>